<svg width="501" height="83" viewBox="0 0 501 83" fill="none" xmlns="http://www.w3.org/2000/svg">
<path d="M19.4 83L0.199951 0.567993H23.752L33.096 44.216L42.184 12.984V0.567993H61.896L74.44 44.344L84.296 0.567993H107.848L88.776 83H67.016L54.6 40.376L41.16 83H19.4Z" fill="white"/>
<path d="M102.075 83L133.691 0.567993H159.163L190.779 83H165.691L158.779 65.464H133.947L127.163 83H102.075ZM137.147 48.184H155.579L146.363 23.992L137.147 48.184Z" fill="white"/>
<path d="M206.933 83V18.488H183.765V0.567993H254.165V18.488H230.997V83H206.933Z" fill="white"/>
<path d="M260.51 83V0.567993H303.006C309.747 0.567993 315.294 1.93333 319.646 4.66399C324.083 7.30933 327.369 10.936 329.502 15.544C331.635 20.152 332.702 25.272 332.702 30.904C332.702 36.7067 331.465 41.8693 328.99 46.392C326.515 50.9147 323.017 54.456 318.494 57.016C313.971 59.576 308.638 60.856 302.494 60.856H284.574V83H260.51ZM284.574 42.424H296.99C300.745 42.424 303.518 41.3573 305.31 39.224C307.187 37.0907 308.126 34.3173 308.126 30.904C308.126 27.2347 307.273 24.3333 305.566 22.2C303.859 20.0667 301.214 19 297.63 19H284.574V42.424Z" fill="white"/>
<path d="M326.325 83L357.941 0.567993H383.413L415.029 83H389.941L383.029 65.464H358.197L351.413 83H326.325ZM361.397 48.184H379.829L370.613 23.992L361.397 48.184Z" fill="white"/>
<path d="M424.01 83V0.567993H460.874C469.322 0.567993 476.533 1.976 482.506 4.792C488.479 7.52266 493.045 11.96 496.202 18.104C499.359 24.1627 500.938 32.2267 500.938 42.296C500.938 56.4613 497.482 66.7867 490.57 73.272C483.658 79.7573 473.759 83 460.874 83H424.01ZM448.074 64.568H457.802C461.813 64.568 465.183 64.0133 467.914 62.904C470.645 61.7093 472.735 59.5333 474.186 56.376C475.637 53.1333 476.362 48.44 476.362 42.296C476.362 36.152 475.679 31.416 474.314 28.088C473.034 24.6747 471.029 22.328 468.298 21.048C465.567 19.6827 462.069 19 457.802 19H448.074V64.568Z" fill="white"/>
</svg>
